<?xml version="1.0" encoding="utf-8" ?><svg xmlns="http://www.w3.org/2000/svg" xmlns:xlink="http://www.w3.org/1999/xlink" width="200" height="200" viewBox="0 0 200 200"><path fill="white" transform="scale(0.195312 0.195312)" d="M0 0L1024 0L1024 1024L0 1024L0 0Z"/><path fill="#240F7F" transform="scale(0.195312 0.195312)" d="M734.157 98.8146C727.638 98.2302 703.234 96.6261 699.159 94.6406C697.964 92.2234 710 77.7836 712.39 75.6733C720.794 68.2493 758.174 11.72 763.066 9.22145C764.097 9.55436 764.641 9.82161 765.134 11.0898C768.933 20.8678 772.591 31.4866 776.087 41.3104C781.423 56.2343 786.571 71.2251 791.529 86.2792C792.896 90.3285 798.853 105.362 798.214 108.145C796.605 109.368 793.591 108.686 791.472 108.393C783.109 107.17 774.771 105.779 766.463 104.223C761.405 131.921 756.354 164.573 744.134 190.089C770.493 191.67 797.757 189.282 824.207 190.806C831.079 191.201 838.349 197.35 837.786 205.263C829.402 242.406 816.973 280.529 807.274 317.217C806.443 319.981 805.427 323.111 804.714 325.871C802.145 334.106 799.125 343.572 797.06 351.93C796.12 354.868 795.462 357.103 794.749 360.106C791.923 367.71 788.57 380.253 786.271 388.257L773.578 432.098C760.963 475.946 748.121 519.727 735.052 563.442C742.44 563.613 804.655 562.878 807.182 564.097C808.515 566.145 809.184 566.493 807.449 568.282C803.632 569.623 768.343 569.044 762.09 569.037L687.338 568.978L384.819 568.953L272.143 569.271C272.058 567.195 272.279 564.685 272.404 562.576C295.864 562.47 319.775 562.988 343.329 563.042C349.612 540.455 354.94 516.386 361.648 494.035C341.759 507.072 320.449 518.519 299.894 530.492C296.9 532.236 285.444 537.36 282.779 535.281C275.483 529.589 268.516 513.9 264.907 505.429C279.425 507.025 308.843 512.55 314.72 494.857C307.778 485.302 303.465 475.412 300.592 464.041C322.222 456.279 350.571 442.151 372.799 437.843C373.301 427.372 372.277 418.262 377.319 408.569C379.005 405.327 379.555 401.974 383.886 402.871C386.678 406.528 380.763 415.725 380.57 420.126C380.493 421.872 381.036 424.103 381.405 425.814C388.377 404.764 394.471 382.452 400.644 361.09L428.609 264.314L438.838 228.514C442.773 214.438 445.114 194.226 462.523 191.276C469.255 190.135 477.081 190.507 483.958 190.504L514.551 190.513L624.607 190.501L634.495 190.505C645.413 190.479 656.638 190.586 667.529 190.42C671.029 190.243 674.901 190.227 678.434 190.137L706.704 190.442C724.038 165.781 730.267 128.391 734.157 98.8146Z"/><path fill="white" transform="scale(0.195312 0.195312)" d="M732.419 208.555C761.753 208.386 791.088 208.375 820.422 208.52C813.732 229.254 807.54 253.253 801.541 274.381L769.658 385.139L734.896 504.011C729.111 523.782 722.721 543.411 717.572 563.389L531.188 563.076L469.412 563.029C459.795 563.042 448.907 563.48 439.451 563.153C444.028 522.34 452.67 482.085 465.249 442.99C488.976 370.776 527.147 326.369 592.762 288.379C605.625 280.932 619.178 274.596 632.466 267.892C634.948 271.569 635.983 272.89 639.105 275.954C637.997 278.588 636.92 281.236 635.875 283.896L635.112 285.117C631.841 286.345 629.145 285.573 625.881 285.029C615.97 283.379 619.683 301.614 620.314 307.623C625.043 308.591 628.151 308.493 633.004 308.53C634.175 310.85 635.099 313.252 636.08 315.659C633.04 319.818 629.122 325.515 626.725 329.99C629.43 332.757 631.166 334.144 634.238 336.552L630.684 339.573C623.904 336.515 620.112 335.749 612.785 334.823C611.751 330.661 609.715 312.55 606.126 312.058C598.755 311.048 580.224 312.482 573.878 315.711C571.942 317.789 573.084 335.468 573.169 339.107L559.611 346.237C553.612 342.585 546.176 337.88 539.803 335.237C533.64 339.226 522.344 353.294 518.792 359.835C521.85 364.262 531.568 372.597 536.067 376.74C534.922 380.985 533.032 385.924 531.717 390.437C525.595 391.908 514.863 392.988 509.615 395.083C506.188 396.452 509.852 425.023 511.549 428.161C514.782 429.722 530.443 429.018 535.051 428.961C537.436 434.538 538.771 438.4 542.622 443.091C538.958 447.215 531.374 454.654 530.505 459.718C531.671 465.273 550.734 482.389 556.958 482.521C560.295 482.592 569.525 471.019 571.934 468.217C579.055 471.205 582.808 472.469 590.343 474.096C591.296 479.805 592.54 490.425 595.293 494.843C599.427 497.969 626.148 493.775 630.242 489.849C631.491 486.117 629.346 472.528 628.621 468.101C635.025 465.227 638.534 463.076 643.998 458.803C650.293 462.502 659.21 467.027 665.831 470.181C673.592 461.117 678.695 454.395 685.029 444.15C681.083 439.507 672.882 432.56 668 427.843C669.816 422.724 671.566 418.301 672.136 412.894C679.317 411.064 686.785 409.183 693.648 406.393C693.654 395.997 692.333 383.283 689.147 373.274C682.264 372.705 673.376 372.985 666.027 372.635C664.342 369.575 662.424 366.415 660.649 363.386C664.287 359.399 667.786 355.192 670.722 350.661C686.416 349.802 686.481 350.063 685.589 334.325C688.802 332.899 690.378 332.016 693.391 330.204C696.674 332.508 701.526 336.584 705.629 335.021C709.752 333.451 714.973 325.047 716.88 321.298C714.604 318.825 710.96 315.804 708.344 313.51C709.52 309.878 709.753 308.54 710.293 304.735C714.706 303.219 718.313 302.568 722.716 300.539C722.752 294.043 721.304 286.686 719.178 280.561C715.06 280.374 710.939 280.283 706.817 280.288C705.642 278.292 704.895 276.499 703.96 274.394C706.205 270.381 708.493 267.602 710.748 263.061C707.58 259.431 700.976 253.541 696.391 252.214C691.73 250.865 687.932 261.414 682.556 260.326C680.162 258.29 678.787 249.481 676.893 245.791C697.773 236.246 717.57 226.602 732.419 208.555Z"/><path fill="white" transform="scale(0.195312 0.195312)" d="M468.151 208.245C496.523 207.819 526.235 208.586 554.754 208.636L682.667 208.729C625.405 238.394 569.769 259.925 520.649 302.741C475.457 342.133 451.959 384.342 433.778 440.874C421.719 476.845 412.256 525.407 409.098 563.088L362.749 563.106C365.957 548.702 370.641 532.745 374.605 518.437L383.982 483.342C390.475 477.702 403.906 467.251 408.11 460.101C402.854 460.744 395.672 462.259 390.313 463.241C399.793 427.369 411.447 389.822 421.65 353.988L441.457 285.287C447.635 263.337 453.611 241.313 460.145 219.465C461.693 214.287 462.145 208.717 468.151 208.245Z"/><path fill="#240F7F" transform="scale(0.195312 0.195312)" d="M479.219 219.146C490.012 218.865 500.95 219.194 511.758 219.044C514.487 219.005 519.577 219.079 521.286 221.455C521.227 222.909 521.171 222.817 520.355 224.054C517.647 225.603 485.855 224.968 480.367 224.991C477.822 235.932 475.105 246.833 472.215 257.689C470.892 262.786 466.526 283.693 464.446 286.356C462.798 287.147 463.659 287.028 461.758 286.556C461.146 285.969 460.758 285.743 460.473 284.911C459.616 282.402 474.124 224.163 475.77 221.37C476.572 220.011 477.816 219.642 479.219 219.146Z"/><path fill="#5EB4D5" transform="scale(0.195312 0.195312)" d="M597.305 317.205C598.499 317.004 602.552 316.915 603.967 316.848C605.212 324.168 606.251 332.079 607.246 339.457C619.111 340.538 621.709 341.934 632.844 346.282C638.059 341.526 642.19 337.003 647.734 332.516L665.275 349.402C661.718 354.239 657.848 358.837 653.689 363.167C658.145 368.668 659.668 372.613 662.519 379.014C669.173 378.138 678.32 378.388 685.167 378.395C686.42 386.775 687.666 394.131 688.685 402.665C681.389 405.089 674.461 406.564 666.971 408.185C666.053 417.628 664.785 421.081 661.285 429.806C666.835 434.698 672.466 439.497 678.174 444.202C673.897 450.532 669.333 457.652 664.183 463.227C657.821 460.674 649.516 455.489 643.701 451.683C636.695 458.356 631.651 460.952 622.793 464.487C623.456 471.481 624.974 478.959 625.7 486.216C617.951 488.5 606.924 490.242 598.882 490.681C597.389 483.702 596.671 476.356 595.244 469.201C586.81 468.567 577.811 465.074 570.481 460.968C565.459 466.441 561.13 472.226 555.9 477.644C549.417 472.688 541.309 465.685 536.162 459.444C539.132 455.03 545.831 447.634 549.716 444.029C543.758 435.334 542.503 432.753 539.097 422.91C531.395 423.449 523.371 423.661 515.632 423.965C514.867 415.735 514.374 407.532 513.543 399.283C521.302 398.141 529.041 396.871 536.757 395.475C538.45 386.565 539.397 383.053 543.234 374.851C536.638 369.908 530.83 365.313 524.802 359.668C529.949 353.07 534.59 347.148 540.442 341.137C546.064 344.554 554.799 349.54 559.767 353.392C566.274 348.274 571.867 345.964 579.571 342.896C579.249 334.918 578.519 327.624 578.486 319.505C584.593 318.426 591.125 317.828 597.305 317.205Z"/><path fill="#240F7F" transform="scale(0.195312 0.195312)" d="M595.872 366.3C616.525 363.118 635.844 377.29 639.011 397.945C642.177 418.6 627.992 437.908 607.335 441.06C586.698 444.209 567.414 430.041 564.25 409.407C561.086 388.773 575.24 369.479 595.872 366.3Z"/><path fill="white" transform="scale(0.195312 0.195312)" d="M596.637 371.738C614.264 368.96 630.812 380.978 633.623 398.6C636.435 416.221 624.449 432.792 606.832 435.637C589.169 438.49 572.543 426.464 569.724 408.795C566.904 391.125 578.962 374.523 596.637 371.738Z"/><path fill="white" transform="scale(0.195312 0.195312)" d="M761.715 19.828C765.6 24.1493 787.832 92.8032 791.232 102.668C781.61 101.453 771.651 99.3638 762.298 98.3228C760.508 103.92 758.602 119.056 757.411 125.733C754.103 145.606 748.747 164.963 741.143 183.61C726.273 220.077 687.46 235.124 654.235 251.254C613.409 271.073 576.979 287.86 541.445 317.023C488.313 360.628 464.435 417.621 448.489 482.733C441.853 509.121 437.048 535.936 434.108 562.985L415.141 562.975L414.85 562.703C414.015 560.278 416.73 542.596 417.304 538.509C420.839 513.716 425.886 489.162 432.417 464.984C453.795 385.319 485.578 330.137 554.855 283.027C571.995 271.371 590.08 261.559 608.434 251.89C628.288 241.835 649.031 232.279 668.838 222.288C688.475 212.408 708.399 203.064 718.418 182.221C725.31 167.883 729.746 153.111 733.086 137.624C736.072 123.779 739.401 107.776 740.171 93.6299C729.134 92.5321 718.08 91.613 707.013 90.8729C725.857 67.6671 744.097 43.9775 761.715 19.828Z"/><path fill="#5EB4D5" transform="scale(0.195312 0.195312)" d="M671.617 249.464L671.897 249.574C673.427 251.173 675.524 261.879 676.151 264.653C680.867 265.191 682.377 265.212 686.428 267.943C689.313 264.71 692.753 260.611 695.99 257.862C699.094 259.836 700.856 261.13 703.735 263.431C701.674 267.834 699.564 270.68 696.821 274.644C699.638 278.399 701.533 282.017 703.556 286.22C707.543 285.988 711.801 285.925 715.814 285.794L717.144 297.099C713.25 298.334 709.037 299.418 705.08 300.51C704.967 305.836 703.927 308.986 701.475 313.518L710.132 321.742C708.205 325.12 706.136 327.56 703.405 330.271C700.154 328.562 696.561 325.708 693.548 323.466C688.477 327.047 685.902 328.148 680.075 330.417C680.378 334.963 680.387 339.551 680.449 344.11C677.806 344.72 675.596 344.898 672.919 345.17C671.117 340.718 669.354 335.474 667.697 330.911C661.206 330.3 661.237 329.507 655.581 328.211L654.545 329.433C653.44 329.049 650.481 325.858 648.615 324.547L648.137 324.218C644.756 327.929 642.045 330.24 638.191 333.432L633.13 330.017C636.458 324.591 638.91 320.866 643.215 316.202C639.914 310.931 639.152 309.472 637.857 303.427C633.576 303.561 629.294 303.671 625.012 303.757C624.88 299.586 624.908 295.264 624.878 291.08C629.506 291.076 634.564 291.36 639.221 291.529C643.834 277.27 648.543 271.89 662.799 266.284C662.656 262.058 662.602 257.836 662.012 253.65C665.222 252.274 668.424 250.878 671.617 249.464Z"/><path fill="#240F7F" transform="scale(0.195312 0.195312)" d="M669.505 277.761C680.575 276.298 690.735 284.088 692.196 295.159C693.657 306.23 685.865 316.389 674.794 317.847C663.725 319.306 653.57 311.516 652.11 300.448C650.649 289.38 658.437 279.223 669.505 277.761Z"/><path fill="white" transform="scale(0.195312 0.195312)" d="M669.895 283.684C675.07 282.841 680.293 284.875 683.536 288.994C686.779 293.114 687.529 298.669 685.494 303.501C683.46 308.333 678.963 311.679 673.75 312.238C665.988 313.072 658.973 307.573 657.929 299.837C656.885 292.1 662.19 284.939 669.895 283.684Z"/><path fill="white" transform="scale(0.195312 0.195312)" d="M372.751 451.957L373.193 452.623C371.908 459.162 369.888 466.381 368.199 472.897C354.898 479.073 330.905 490.771 317.666 494.717L317.272 494.197C317.664 491.409 323.161 484.267 325.383 482.71C340.809 471.906 357.222 462.674 372.751 451.957Z"/><path fill="#B3DBE1" transform="scale(0.195312 0.195312)" d="M642.347 263.782C645.486 262 648.718 260.104 651.882 258.395C653.235 260.248 654.805 262.06 655.459 264.205L655.018 264.818C650.848 267.558 648.188 269.423 644.34 272.575C642.357 270.598 640.032 267.88 638.115 265.748L642.347 263.782Z"/><path fill="white" transform="scale(0.195312 0.195312)" d="M642.347 263.782C645.486 262 648.718 260.104 651.882 258.395C653.235 260.248 654.805 262.06 655.459 264.205L655.018 264.818C650.858 264.435 645.161 266.572 642.347 263.782Z"/><path fill="#B3DBE1" transform="scale(0.195312 0.195312)" d="M663.991 336.681L664.663 337.146C665.113 338.861 665.834 340.974 665.7 342.685L664.731 341.915C663.342 340.855 661.203 339.521 660.534 338.025C661.512 336.789 661.972 337.098 663.991 336.681Z"/><path fill="#240F7F" transform="scale(0.195312 0.195312)" d="M90.3954 573.174C97.694 564.052 110.185 564.213 113.333 557.652C117.267 549.454 119.805 535.512 123.649 525.887C133.352 501.642 146.659 476.039 167.997 460.135C170.994 458.069 176.226 454.515 179.839 454.373C188.316 454.038 197.204 456.225 205.561 456.485C233.482 457.354 257.754 461.179 284.252 470.616C287.654 466.842 289.232 464.906 294.268 463.379C297.252 478.623 301.022 485.009 309.092 498.359C306.421 500.033 302.396 502.545 299.31 502.903C291.149 503.849 281.963 502.14 273.74 501.482C247.678 499.398 219.594 496.449 194.971 506.921C207.084 504.661 217.412 504.579 229.673 504.748C225.868 509.725 220.753 516.806 216.546 521.359C197.948 541.495 177.09 557.531 153.688 571.658C145.04 576.879 129.864 583.856 122.774 589.218C149.429 581.733 186.839 558.511 205.793 538.629C201.744 544.669 195.538 550.447 191.067 556.366C188.519 559.74 186.423 565.658 184.149 568.413C171.66 583.541 158.793 596.188 140.34 603.029C161.246 600.281 170.829 590.617 183.721 574.25C183.972 577.226 184.46 581.546 184.448 584.418C181.245 589.196 177.038 591.361 172.797 594.947C177.158 611.656 202.469 648.785 213.77 664.535C217.415 671.309 221.483 677.707 224.755 684.665C227.805 695.814 227.476 705.173 225.144 716.588C224.47 719.556 223.715 723.321 222.821 726.143C217.343 744.071 208.55 763.701 201.898 781.384C195.823 797.534 187.859 813.733 181.09 829.629C180.714 830.513 180.074 831.072 179.205 831.443C177.785 831.257 177.607 831.205 176.198 831.327C174.629 834.817 171.893 841.829 171.209 845.52L171.661 846.011C176.174 846.829 184.053 839.928 186.692 841.322L186.056 843.977C187.416 845.814 187.413 843.74 189.456 844.94C189.158 846.254 189.002 846.306 189.437 847.536C193.382 848.532 199.619 855.009 203.895 856.775C211.119 859.57 219.992 856.117 225.949 861.916C230.139 865.994 231.401 873.709 223.725 873.875C202.182 874.078 180.16 875.459 158.686 873.988C155.015 873.737 152.67 869.957 153.188 866.71C155.026 855.18 160.374 841.407 164.005 830.548L154.032 830.48C157.573 804.652 162.211 770.708 169.282 745.722C170.648 741.029 172.354 736.441 174.386 731.995C176.83 726.617 186.563 709.878 182.343 704.559C179.129 700.507 171.772 694.489 167.683 690.804C162.252 685.902 156.984 680.823 151.887 675.576C155.539 658.989 159.875 637.279 159.445 620.365C158.184 624.005 155.929 635.808 154.953 640.161C152.168 652.313 149.292 664.444 146.326 676.554C138.745 707.508 125.255 740.282 111.991 769.17C92.6592 811.273 73.3329 853.451 53.1994 895.155C52.7234 896.141 50.1819 894.768 48.5259 895.515C47.2698 897.781 42.2172 908.86 43.1793 910.876C46.1409 911.421 52.0156 907.273 56.0627 906.13L56.5291 906.505C56.1129 907.869 55.9229 908.015 56.1253 909.386C58.6235 911.138 57.114 909.08 59.8988 910.265C58.6912 911.457 58.8691 910.818 58.7227 912.114C59.944 913.211 61.0747 914.409 62.5021 915.125L63.0319 913.913L63.8096 914.324L63.4104 915.466C64.1521 916.772 66.1339 917.723 67.4014 918.539C69.6284 919.972 72.0414 921.801 74.5915 922.579C81.2728 924.616 92.008 922.42 96.9665 928.038C98.8618 930.186 99.7681 933.948 99.2793 936.75C99.0779 937.905 98.7759 938.658 97.6597 939.151C94.0795 940.731 33.7875 941.376 29.0462 940.083C27.3804 939.629 26.1653 938.789 25.3431 937.238C21.1509 929.328 33.0605 899.456 36.1166 889.828C33.6152 888.67 31.5613 887.625 29.1427 886.334C29.9864 881.739 32.1708 874.543 33.4237 869.871C35.5067 862.106 37.4476 854.304 39.2453 846.468L51.5236 796.308C53.601 787.891 56.7471 773.471 59.5614 765.658C66.8638 747.773 79.993 738.877 82.8532 718.934C89.0154 675.969 66.8304 630.047 97.6016 592.807L95.1983 587.958C94.9545 582.367 91.0563 580.674 90.3954 573.174Z"/><path fill="white" transform="scale(0.195312 0.195312)" d="M26.0769 924.245C31.2882 925.104 38.6172 931.253 44.0006 932.967C45.3838 933.407 50.2638 934.983 50.941 935.932C44.115 935.316 36.924 933.806 30.1094 932.885C23.3232 931.968 24.2847 929.399 26.0769 924.245Z"/><path fill="white" transform="scale(0.195312 0.195312)" d="M155.741 858.336C160.32 861.104 165.032 863.644 169.861 865.947C172.609 867.268 175.538 868.201 178.056 869.705L177.389 869.984C169.517 868.303 161.605 867.472 153.642 866.108C154.286 862.821 154.509 861.466 155.741 858.336Z"/><path fill="#7045E8" transform="scale(0.195312 0.195312)" d="M804.714 325.871C805.427 323.111 806.443 319.981 807.274 317.217C814.353 322.476 828 336.812 834.769 343.447C853.994 362.166 873.053 381.055 891.944 400.112L963.081 470.917C972.889 480.7 990.116 496.745 998.464 506.67C969.431 536.359 940.156 565.81 910.641 595.019L693.735 811.947L565.493 939.857L528.293 976.972C520.624 984.663 511.483 994.154 503.494 1001.44C499.828 998.648 492.17 990.692 488.589 987.156C479.539 978.297 470.538 969.387 461.586 960.428L386.342 885.929C370.411 870.103 352.012 850.752 335.288 836.623C338.758 835.165 340.345 834.474 343.558 832.54C371.134 861.51 401.441 888.556 429.005 917.601C436.805 925.821 445.897 933.751 454.009 941.774C470.257 958.164 486.654 974.405 503.199 990.496C511.677 982.755 520.768 973.046 529.021 964.761L574.591 919.212L723.037 771.04L911.142 582.637L959.839 534.044C968.982 524.971 978.663 515.898 987.288 506.414C954.705 473.558 921.847 440.975 888.719 408.668C881.526 401.531 808.343 327.348 804.714 325.871Z"/><path fill="#5EB4D5" transform="scale(0.195312 0.195312)" d="M797.06 351.93L898.688 452.445C912.247 465.692 925.691 479.057 939.018 492.538C943.348 496.912 948.802 501.869 952.809 506.226C938.801 519.154 925.003 534.197 911.461 547.755C882.965 575.929 854.651 604.287 826.521 632.826L616.994 842.274L542.258 916.969C530.685 928.548 514.999 945.485 503.234 955.854C489.764 943.511 479.295 932.913 466.438 920.387L402.032 856.797C393.431 848.082 384.772 839.426 376.054 830.827C369.087 824.087 360.507 816.444 354.299 809.2C354.891 806.274 355.466 803.461 355.932 800.511C361.252 805.139 366.82 811.273 371.931 816.358L400.026 844.2C434.011 878.229 468.257 911.997 502.76 945.501C522.419 927.637 542.849 905.634 561.903 886.777L715.151 733.718L873.837 574.681C888.527 560.062 903.134 545.358 917.656 530.571C925.24 522.96 934.984 513.745 941.861 505.924C917.978 481.658 893.864 457.621 869.521 433.817C844.883 408.959 819.957 384.387 794.749 360.106C795.462 357.103 796.12 354.868 797.06 351.93Z"/><path fill="#7045E8" transform="scale(0.195312 0.195312)" d="M11.3158 505.999C29.4283 487.443 49.0942 468.603 67.6734 450.36L187.034 333.727C235.314 286.528 283.183 237.373 331.213 189.664L446.837 74.4016L483.584 37.9182C489.399 32.1634 498.388 22.7427 504.362 17.8893C512.311 24.8146 522.02 34.9046 529.648 42.461L568.694 80.9363C605.553 117.055 642.134 153.457 678.434 190.137C674.901 190.227 671.029 190.243 667.529 190.42C666.494 187.88 517.999 41.2651 504.239 28.5967C497.077 34.7797 488.556 44.0421 481.687 50.9442L447.893 84.4556L339.435 192.37L252.733 279.086C234.467 297.347 216.276 315.695 197.607 333.547C192.964 337.987 188.188 339.352 182.693 342.366C172.823 347.779 165.383 356.519 159.618 366.055C156.787 370.738 154.314 376.411 150.4 380.347C142.636 387.275 135.447 393.885 128.047 401.261L21.7941 505.975C44.859 528.172 67.727 550.572 90.3954 573.174C91.0563 580.674 94.9545 582.367 95.1983 587.958C88.4984 580.539 75.8062 569.1 68.1419 561.587L11.3158 505.999Z"/><path fill="#240F7F" transform="scale(0.195312 0.195312)" d="M262.406 349.058C263.276 349.908 263.894 350.714 264.264 351.872C269.451 368.089 245.261 376.826 234.736 381.085C237.467 389.54 239.65 393.922 243.701 401.66C246.438 406.887 251.371 409.195 251.42 412.939C250.204 415.606 248.408 416.518 245.926 418.126C246.491 423.182 248.722 433.112 246.481 437.062C244.232 438.987 242.031 438.562 239.252 438.279C233.761 437.719 228.423 437.097 222.897 436.916C221.178 442.632 220.801 447.796 220.341 453.742C203.227 450.38 199.47 450.722 182.604 452.247C189.153 446.002 189.384 445.356 191.509 436.637C190.845 436.01 185.735 432.596 183.725 430.838C173.031 421.485 161.804 412.514 151.73 402.465C165.633 389.565 169.458 373.998 182.433 360.704C195.813 346.996 212.77 347.41 226.277 360.916C238.014 357.967 251.379 353.893 262.406 349.058Z"/><path fill="white" transform="scale(0.195312 0.195312)" d="M196.852 412.117C198.696 413.043 204.189 419.851 206.871 421.673C210.48 424.126 214.519 425.849 218.424 427.72L218.623 428.483C210.373 428.165 193.273 423.141 196.852 412.117Z"/><path fill="white" transform="scale(0.195312 0.195312)" d="M219.576 394.28C224.72 395.613 233.982 400.15 239.085 402.537C241.66 403.742 241.642 404.297 242.321 406.486C233.134 406.261 224.579 402.137 219.576 394.28Z"/><path fill="#240F7F" transform="scale(0.195312 0.195312)" d="M628.669 710.207L629.411 710.279C631.022 711.643 630.55 710.818 631 712.767C628.992 718.669 623.897 742.16 621.083 744.16C618.618 743.856 612.334 736.19 610.034 733.826C593.387 748.409 577.334 763.8 560.938 778.672C556.89 782.344 552.29 786.888 547.777 789.896C520.834 773.83 491.577 753.493 464.708 736.38C450.83 749.52 437.429 763.756 423.641 777.009C418.038 782.395 411.093 789.61 405.124 794.393C391.984 792.682 378.284 791.83 364.908 790.044C353.326 788.941 341.603 786.743 329.95 786.844C318.213 786.945 308.004 796.588 309.416 808.506C309.958 812.913 312.246 816.919 315.767 819.625C319.615 822.616 324.508 823.93 329.337 823.269C334.165 822.657 338.543 820.124 341.478 816.243C345.216 811.205 345.352 806.71 344.498 800.938C346.536 800.915 350.337 800.588 351.882 801.777C353.676 807.808 349.381 817.755 344.972 821.954C337.807 828.778 332.291 829.914 322.981 829.97C319.55 836.754 275.68 916.661 274.181 916.793C262.416 917.827 220.259 918.623 206.092 919.045C193.179 939.085 181.367 959.908 167.919 979.533C165.975 982.368 143.839 982.115 139.601 982.257L89.8751 983.937C77.4748 984.369 65.0723 984.735 52.668 985.035C47.3717 985.196 39.6238 987.177 36.3335 982.822C35.9488 980.975 35.7819 981.795 36.7645 980.266C40.0048 978.437 58.5601 978.651 63.5488 978.482L124.415 976.602C137.373 976.198 150.707 975.973 163.595 974.897C171.575 961.508 180.31 948.227 188.647 935.021C191.819 929.995 199.767 916.097 203.29 912.633C224.614 912.337 249.8 912.097 270.97 910.616C284.33 888.756 295.438 864.18 308.687 842.151C311.375 837.683 313.89 832.878 316.31 828.246C313.106 826.041 310.874 824.312 308.309 821.366C295.225 806.357 306.853 782.547 325.881 780.805C336.319 779.849 347.913 781.587 358.412 782.699L403.22 787.621C410.384 780.033 458.078 732.278 464.303 728.685C472.459 732.683 489.617 744.701 497.781 750.09L546.768 781.853C565.644 765.87 587.617 745.532 605.86 728.489C603.065 725.582 594.982 720.372 594.708 716.859C596.675 714.499 623.92 710.835 628.669 710.207Z"/><path fill="#5EB4D5" transform="scale(0.195312 0.195312)" d="M504.759 62.4746C515.686 72.2945 527.153 83.8468 537.639 94.2034C554.605 110.819 571.452 127.556 588.177 144.413L619.143 174.787C623.305 178.915 630.912 186.207 634.495 190.505L624.607 190.501C620.24 185.519 613.805 179.7 608.897 175.014C600.798 167.326 592.765 159.569 584.801 151.742C558.273 125.656 532.262 99.2814 505.485 73.375C501.708 76.0371 488.995 89.1243 485.106 92.9591L435.659 142.401L281.637 295.708C265.168 311.899 248.606 329.357 231.896 345.155L225.478 341.208L421.567 145.513L476.6 90.7599C484.318 83.1043 498.161 70.1182 504.759 62.4746Z"/><path fill="#240F7F" transform="scale(0.195312 0.195312)" d="M577.953 607.53C590.473 607.378 607.221 605.404 617.167 614.211C627.888 623.705 627.861 640.821 618.293 651.135C608.794 660.417 590.498 658.619 577.88 658.613L577.953 607.53Z"/><path fill="white" transform="scale(0.195312 0.195312)" d="M587.374 615.182C601.077 615.116 615.437 615.313 615.883 633.291C616.014 638.563 614.359 641.866 610.996 645.745C603.212 651.607 596.851 650.553 587.459 650.508C587.268 638.734 587.239 626.957 587.374 615.182Z"/><path fill="#240F7F" transform="scale(0.195312 0.195312)" d="M235.288 504.724C243.364 504.859 251.633 504.891 259.67 505.512C263.226 514.847 267.96 529.025 275.318 535.939C279.271 539.656 282.823 539.246 287.681 539.001C282.953 542.835 277.699 545.97 272.079 548.311C261.944 548.454 229.27 532.615 220.144 527.611C226.043 520.581 231.124 512.903 235.288 504.724Z"/><path fill="#240F7F" transform="scale(0.195312 0.195312)" d="M500.885 607.087L510 607.091C517.459 624.327 525.064 641.499 532.815 658.606L522.836 658.552C521.123 654.358 519.713 651.199 517.676 647.157L508.093 647.174C502.962 647.189 497.832 647.137 492.704 647.017C490.999 650.896 489.338 654.794 487.721 658.71C484.61 659.046 480.455 658.976 477.246 659.008C484.635 642.761 494.956 623.352 500.885 607.087Z"/><path fill="white" transform="scale(0.195312 0.195312)" d="M505.162 619.202C506.708 620.306 513.178 636.225 514.53 639.351L506.25 639.411L496.136 639.407C498.433 633.732 502.089 624.324 505.162 619.202Z"/><path fill="#5EB4D5" transform="scale(0.195312 0.195312)" d="M145.858 418.326C147.777 418.879 150.729 421.599 152.349 422.972C143.507 431.022 134.119 440.495 125.509 448.887C106.147 467.849 86.8998 486.93 67.77 506.127C71.2898 509.86 76.7264 514.523 80.6564 518.21C86.1941 523.505 91.6936 528.839 97.1545 534.213C95.5465 535.633 93.4258 537.79 91.8377 539.319C90.6706 539.02 60.7877 510.06 56.756 506.287C59.9895 502.558 64.7978 498.22 68.4007 494.701C74.4958 488.716 80.5597 482.7 86.5923 476.652C99.455 463.688 112.455 450.86 125.59 438.172C132.305 431.593 138.949 424.659 145.858 418.326Z"/><path fill="#240F7F" transform="scale(0.195312 0.195312)" d="M641.502 607.046L679.501 607.127C679.45 609.832 679.308 612.655 679.208 615.369L650.972 615.473L650.998 628.505L676.842 628.502C676.941 631.254 676.919 634.243 676.953 637.018L652.875 636.919C652.613 636.92 651.722 637.133 651.425 637.196C650.438 639.585 650.918 647.508 650.993 650.302C660.643 650.472 670.843 650.271 680.536 650.24L680.527 658.459L641.286 658.445C641.303 642.143 640.851 623.139 641.502 607.046Z"/><path fill="#5EB4D5" transform="scale(0.195312 0.195312)" d="M213.77 664.535C220.725 668.749 237.755 686.591 244.661 693.114C272.06 718.993 298.398 746.142 325.038 772.805C322.328 773.555 319.683 774.166 317.192 775.48C310.2 767.668 228.602 686.327 224.755 684.665C221.483 677.707 217.415 671.309 213.77 664.535Z"/><path fill="#240F7F" transform="scale(0.195312 0.195312)" d="M389.474 607.161C394.249 606.614 406.368 607.497 409.539 611.347C410.161 613.622 408.249 616.891 407.191 619.016C400.879 615.956 382.399 610.767 382.063 621.961C381.862 628.653 402.533 629.987 407.847 635.136C414.519 641.6 414.231 645.126 408.983 652.903C405.946 657.404 398.438 658.507 393.744 659.073C384.752 659.211 379.626 657.698 371.771 653.682L375.544 645.369C381.784 649.723 387.243 651.879 395.063 651.073C399.03 650.664 403.564 648.504 402.797 643.829C397.54 636.062 374.944 638.735 373.361 624.886C372.032 613.265 379.151 608.816 389.474 607.161Z"/><path fill="#240F7F" transform="scale(0.195312 0.195312)" d="M278.059 607.105L287.693 607.048L304.393 648.011C310.254 636.7 316.785 619.426 321.599 607.219C324.514 607.084 328.131 607.192 331.104 607.204C330.297 609.571 329.071 612.328 328.101 614.674C322.111 627.694 315.066 645.123 309.974 658.488L299.031 658.754C294.949 649.462 291.052 639.769 287.15 630.368C284.211 623.288 280.311 614.335 278.059 607.105Z"/><path fill="#240F7F" transform="scale(0.195312 0.195312)" d="M420.623 607.08L430.791 607.123C435.829 620.138 442.189 633.959 447.912 646.688C453.55 635.803 460.33 618.596 465.081 607.144C468.141 607.08 471.332 607.128 474.404 607.13C473.255 609.303 471.743 613.214 470.741 615.62C464.96 630.175 458.631 644.368 452.943 658.863C450.103 659.099 446.213 659.015 443.29 659.03C436.758 641.802 427.036 624.445 420.623 607.08Z"/><path fill="#240F7F" transform="scale(0.195312 0.195312)" d="M690.814 607.061L700.134 607.055C705.603 620.519 710.907 634.05 716.047 647.643C721.138 634.061 726.617 620.625 731.808 607.077C734.957 606.98 737.967 607.145 741.111 607.279L737.516 616.311L720.642 658.501L710.495 658.559C704.838 641.935 695.759 623.29 690.814 607.061Z"/><path fill="#7045E8" transform="scale(0.195312 0.195312)" d="M222.821 726.143C223.715 723.321 224.47 719.556 225.144 716.588C225.807 718.849 241.048 733.046 243.5 735.434L278.023 769.146C285.27 776.228 293.254 783.715 300.055 791.2L297.319 798.765C272.273 775.034 247.703 750.198 222.821 726.143Z"/><path fill="#240F7F" transform="scale(0.195312 0.195312)" d="M345.197 607.178L354.555 607.183L354.712 641.155C354.73 644.89 355.01 655.79 354.378 658.886L345.29 658.933C345.082 641.791 345.224 624.345 345.197 607.178Z"/><path fill="#240F7F" transform="scale(0.195312 0.195312)" d="M550.744 648.273C553.613 647.339 556.71 648.828 557.773 651.653C558.835 654.477 557.488 657.638 554.714 658.827C552.805 659.645 550.601 659.349 548.976 658.055C547.351 656.762 546.568 654.68 546.937 652.636C547.306 650.592 548.769 648.916 550.744 648.273Z"/></svg>